<?xml version="1.0" encoding="UTF-8" standalone="no"?>
<!-- Generator: Adobe Illustrator 20.0.0, SVG Export Plug-In . SVG Version: 6.00 Build 0)  -->

<svg
   xmlns:dc="http://purl.org/dc/elements/1.1/"
   xmlns:cc="http://creativecommons.org/ns#"
   xmlns:rdf="http://www.w3.org/1999/02/22-rdf-syntax-ns#"
   xmlns:svg="http://www.w3.org/2000/svg"
   xmlns="http://www.w3.org/2000/svg"
   xmlns:sodipodi="http://sodipodi.sourceforge.net/DTD/sodipodi-0.dtd"
   xmlns:inkscape="http://www.inkscape.org/namespaces/inkscape"
   version="1.1"
   id="Objects"
   x="0px"
   y="0px"
   viewBox="0 0 340.96665 200"
   xml:space="preserve"
   inkscape:version="0.91 r13725"
   sodipodi:docname="logo.svg"
   width="340.96664"
   height="200"><metadata
     id="metadata87"><rdf:RDF><cc:Work
         rdf:about=""><dc:format>image/svg+xml</dc:format><dc:type
           rdf:resource="http://purl.org/dc/dcmitype/StillImage" /><dc:title></dc:title></cc:Work></rdf:RDF></metadata><defs
     id="defs85" /><sodipodi:namedview
     pagecolor="#ffffff"
     bordercolor="#666666"
     borderopacity="1"
     objecttolerance="10"
     gridtolerance="10"
     guidetolerance="10"
     inkscape:pageopacity="0"
     inkscape:pageshadow="2"
     inkscape:window-width="1920"
     inkscape:window-height="1017"
     id="namedview83"
     showgrid="false"
     fit-margin-top="0.4"
     fit-margin-left="0.4"
     fit-margin-right="0.4"
     fit-margin-bottom="0.4"
     inkscape:zoom="0.834386"
     inkscape:cx="334.4966"
     inkscape:cy="-179.50703"
     inkscape:window-x="-8"
     inkscape:window-y="-8"
     inkscape:window-maximized="1"
     inkscape:current-layer="Objects" /><style
     type="text/css"
     id="style3">
	.st0{fill:#FFFFFF;}
</style><g
     id="g5"
     transform="translate(-9.8,-11.5)"
     style="fill:#ffffff"><g
       id="g7"
       style="fill:#ffffff"><g
         id="g9"
         style="fill:#ffffff"><g
           id="g11"
           style="fill:#ffffff"><path
             class="st0"
             d="m 157.1,36.7 c 2,0.7 4.4,-0.6 5.9,-4.7 1.5,-4.1 0.8,-13.1 0.8,-13.1 0,0 -6.5,6.3 -8,10.4 -1.6,4 -0.7,6.6 1.3,7.4 z"
             id="path13"
             inkscape:connector-curvature="0"
             style="fill:#ffffff" /></g><g
           id="g15"
           style="fill:#ffffff"><path
             class="st0"
             d="m 35,92.6 c 0.7,-2 -0.6,-4.4 -4.7,-5.9 -4.1,-1.5 -13.1,-0.8 -13.1,-0.8 0,0 6.3,6.5 10.4,8 4.1,1.6 6.7,0.7 7.4,-1.3 z"
             id="path17"
             inkscape:connector-curvature="0"
             style="fill:#ffffff" /></g><g
           id="g19"
           style="fill:#ffffff"><path
             class="st0"
             d="m 37.7,165.2 c -0.9,-1.9 -3.5,-2.6 -7.5,-0.8 -4,1.8 -9.8,8.8 -9.8,8.8 0,0 9.1,0.1 13,-1.7 4,-1.9 5.2,-4.3 4.3,-6.3 z"
             id="path21"
             inkscape:connector-curvature="0"
             style="fill:#ffffff" /></g><g
           id="g23"
           style="fill:#ffffff"><path
             class="st0"
             d="m 84.5,39.3 c 1.9,-0.9 2.6,-3.5 0.8,-7.5 -1.8,-4 -8.8,-9.8 -8.8,-9.8 0,0 -0.1,9.1 1.7,13 1.9,4 4.3,5.2 6.3,4.3 z"
             id="path25"
             inkscape:connector-curvature="0"
             style="fill:#ffffff" /></g><g
           id="g27"
           style="fill:#ffffff"><path
             class="st0"
             d="m 61.1,196.8 c -1.6,-1.4 -4.3,-1 -7.2,2.3 -2.9,3.3 -5.4,12 -5.4,12 0,0 8.3,-3.6 11.2,-6.9 2.9,-3.2 3,-6 1.4,-7.4 z"
             id="path29"
             inkscape:connector-curvature="0"
             style="fill:#ffffff" /><path
             class="st0"
             d="m 186.9,54.5 c 1.6,1.4 4.3,1 7.2,-2.3 2.9,-3.3 5.4,-12 5.4,-12 0,0 -8.3,3.6 -11.2,6.9 -2.9,3.3 -3,6 -1.4,7.4 z"
             id="path31"
             inkscape:connector-curvature="0"
             style="fill:#ffffff" /></g><g
           id="g33"
           style="fill:#ffffff"><path
             class="st0"
             d="m 52.9,62.8 c 1.4,-1.6 1,-4.3 -2.3,-7.2 -3.3,-2.9 -12,-5.4 -12,-5.4 0,0 3.6,8.3 6.9,11.2 3.2,2.9 5.9,3 7.4,1.4 z"
             id="path35"
             inkscape:connector-curvature="0"
             style="fill:#ffffff" /></g><g
           id="g37"
           style="fill:#ffffff"><path
             class="st0"
             d="m 29.2,131.5 c -0.1,-2.1 -2.4,-3.7 -6.7,-3.5 -4.4,0.3 -12.3,4.6 -12.3,4.6 0,0 8.4,3.4 12.8,3.1 4.4,-0.2 6.4,-2.1 6.2,-4.2 z"
             id="path39"
             inkscape:connector-curvature="0"
             style="fill:#ffffff" /></g><g
           id="g41"
           style="fill:#ffffff"><path
             class="st0"
             d="m 118.2,30.9 c 2.1,-0.1 3.7,-2.4 3.5,-6.7 -0.3,-4.4 -4.6,-12.3 -4.6,-12.3 0,0 -3.4,8.4 -3.1,12.8 0.2,4.3 2,6.3 4.2,6.2 z"
             id="path43"
             inkscape:connector-curvature="0"
             style="fill:#ffffff" /></g></g><g
         id="g45"
         style="fill:#ffffff"><path
           class="st0"
           d="m 47.7,103.1 c 17.8,-47.9 71,-72.2 118.9,-54.4 9,3.4 17.2,8 24.4,13.6 C 181.9,53.2 170.7,45.8 157.8,41 109.9,23.1 56.7,47.5 38.9,95.3 24.5,134.1 37.8,176.5 68.9,200.6 44.2,175.8 34.7,138 47.7,103.1 Z"
           id="path47"
           inkscape:connector-curvature="0"
           style="fill:#ffffff" /></g></g><g
       id="g49"
       style="fill:#ffffff"><path
         class="st0"
         d="m 145.3,88.7 c -0.1,0 -0.2,0 -0.4,0 -0.3,0 -0.8,0.2 -1.2,0.6 -0.2,0.2 -0.3,0.4 -0.4,0.6 -0.1,0.2 -0.1,0.4 -0.1,0.6 0,0 0,0.1 -0.1,0.1 -0.1,0 -0.1,0 -0.1,0 0,0 0,0 0,0 -0.1,-0.1 -0.2,-0.3 -0.4,-0.4 -0.2,-0.1 -0.4,-0.2 -0.7,-0.3 -0.5,-0.1 -1,0 -1.3,0.2 -0.2,0.1 -0.3,0.1 -0.4,0.2 -0.1,0.1 -0.1,0.1 -0.1,0.1 0,0 0.1,0 0.1,0 0.1,0 0.2,0 0.4,0 0.3,0 0.7,0 1.1,0.1 0.4,0.1 0.8,0.2 1.1,0.4 0.1,0.1 0.3,0.1 0.3,0.2 0,0 0.2,0 0.2,-0.1 0,-0.1 0.1,-0.2 0.2,-0.3 0.2,-0.3 0.4,-0.6 0.7,-0.9 0.3,-0.3 0.6,-0.5 0.9,-0.7 0.1,-0.2 0.2,-0.3 0.2,-0.4 0.1,0 0.1,0 0.1,0 0,0 0,0 -0.1,0 z"
         id="path51"
         inkscape:connector-curvature="0"
         style="fill:#ffffff" /><path
         class="st0"
         d="m 238.6,111.8 c -0.1,0 -0.2,0 -0.4,0 -0.3,0 -0.8,0.2 -1.2,0.6 -0.2,0.2 -0.3,0.4 -0.4,0.6 -0.1,0.2 -0.1,0.4 -0.1,0.6 l 0,0 c 0,0 0,0.1 -0.1,0.1 0,0 -0.1,0 -0.1,0 0,0 0,0 0,0 -0.1,-0.1 -0.2,-0.3 -0.4,-0.4 -0.2,-0.1 -0.4,-0.2 -0.7,-0.3 -0.5,-0.1 -1,0 -1.3,0.2 -0.2,0.1 -0.3,0.1 -0.4,0.2 -0.1,0.1 -0.1,0.1 -0.1,0.1 0,0 0.1,0 0.1,0 0.1,0 0.2,0 0.4,0 0.3,0 0.7,0 1.1,0.1 0.4,0.1 0.8,0.2 1.1,0.4 0.1,0.1 0.3,0.1 0.3,0.2 0,0 0.2,0 0.2,-0.1 0,-0.1 0.1,-0.2 0.2,-0.3 0.2,-0.3 0.4,-0.6 0.7,-0.9 0.3,-0.3 0.6,-0.5 0.9,-0.7 0.1,-0.2 0.2,-0.2 0.2,-0.4 0.1,0 0.1,0 0.1,0 0,0 0,0 -0.1,0 z"
         id="path53"
         inkscape:connector-curvature="0"
         style="fill:#ffffff" /><path
         class="st0"
         d="m 227.9,108.3 c 0.1,-0.2 0.2,-0.3 0.4,-0.5 0,-0.1 -0.1,-0.1 -0.1,-0.2 -0.4,-0.6 -1.2,-1.5 -2.4,-2 -0.6,-0.2 -1.2,-0.3 -1.8,-0.3 -0.6,0 -1,0.2 -1.4,0.3 l -0.1,0 c -0.1,0 -0.2,0 -0.3,0 -0.1,-0.1 -0.1,-0.2 0,-0.3 l 0.1,-0.1 c 0.2,-0.4 0.4,-0.8 0.5,-1.4 0.1,-0.5 0.1,-1.2 -0.1,-1.8 -0.3,-1.3 -1.1,-2.1 -1.7,-2.6 -0.3,-0.3 -0.6,-0.4 -0.8,-0.5 -0.2,-0.1 -0.3,-0.2 -0.3,-0.2 0,0 0,0.1 0.1,0.3 0.1,0.2 0.2,0.5 0.3,0.8 0.3,0.7 0.6,1.6 0.9,2.5 0.3,1 0.3,1.9 0.3,2.6 0,0.4 0,0.7 0,0.9 0,0.1 0.2,0.3 0.3,0.3 0.2,0 0.5,0 0.9,0.1 0.7,0.1 1.6,0.3 2.5,0.6 0.9,0.4 1.8,0.8 2.4,1.2 0.2,0.2 0.2,0.3 0.3,0.3 z"
         id="path55"
         inkscape:connector-curvature="0"
         style="fill:#ffffff" /><path
         class="st0"
         d="m 159.1,104.3 c -0.2,-0.1 -0.5,-0.2 -0.9,-0.3 -0.8,-0.2 -1.9,-0.3 -3.1,0.1 -0.6,0.2 -1.1,0.6 -1.5,1 -0.4,0.4 -0.7,0.8 -0.9,1.2 0,0.1 -0.2,0.2 -0.3,0.1 -0.1,-0.1 -0.2,-0.1 -0.2,-0.2 0,0 0,0 0,0 -0.1,-0.4 -0.3,-0.9 -0.6,-1.3 -0.3,-0.5 -0.7,-0.9 -1.3,-1.3 -1.1,-0.7 -2.2,-0.8 -3,-0.8 -0.4,0 -0.7,0.1 -0.9,0.1 -0.2,0 -0.3,0.1 -0.3,0.1 0,0 0.1,0.1 0.3,0.2 0.2,0.1 0.5,0.2 0.8,0.4 0.7,0.3 1.5,0.8 2.4,1.3 0.8,0.5 1.5,1.2 2,1.7 0.2,0.3 0.4,0.5 0.6,0.7 0.1,0.1 0.3,0.1 0.4,0.1 0.2,-0.1 0.4,-0.3 0.7,-0.5 0.6,-0.4 1.4,-0.9 2.3,-1.2 0.9,-0.3 1.9,-0.6 2.6,-0.7 0.4,-0.1 0.7,-0.1 0.9,-0.2 0.2,0 0.3,-0.1 0.3,-0.1 0,0 -0.1,-0.3 -0.3,-0.4 z"
         id="path57"
         inkscape:connector-curvature="0"
         style="fill:#ffffff" /><path
         class="st0"
         d="m 225.7,113.9 c -0.2,-0.1 -0.5,-0.2 -0.9,-0.3 -0.8,-0.2 -1.9,-0.3 -3.1,0.1 -0.6,0.2 -1.1,0.6 -1.5,1 -0.4,0.4 -0.7,0.8 -0.9,1.2 0,0 0,0.1 0,0.1 0,0.1 -0.1,0.1 -0.2,0.1 -0.1,0 -0.2,-0.1 -0.2,-0.2 0,0 0,-0.1 0,-0.1 -0.1,-0.4 -0.3,-0.9 -0.6,-1.3 -0.3,-0.5 -0.7,-0.9 -1.3,-1.3 -1.1,-0.7 -2.2,-0.8 -3,-0.8 -0.4,0 -0.7,0.1 -0.9,0.1 -0.2,0 -0.3,0.1 -0.3,0.1 0,0 0.1,0.1 0.3,0.2 0.2,0.1 0.5,0.2 0.8,0.4 0.7,0.3 1.5,0.8 2.4,1.3 0.8,0.5 1.5,1.2 2,1.7 0.2,0.3 0.4,0.5 0.6,0.7 0.1,0.1 0.3,0.1 0.4,0.1 0.2,-0.1 0.4,-0.3 0.7,-0.5 0.6,-0.4 1.4,-0.9 2.3,-1.2 0.9,-0.3 1.9,-0.6 2.6,-0.7 0.4,-0.1 0.7,-0.1 0.9,-0.2 0.2,0 0.3,-0.1 0.3,-0.1 0,0 -0.2,-0.3 -0.4,-0.4 z"
         id="path59"
         inkscape:connector-curvature="0"
         style="fill:#ffffff" /><polygon
         class="st0"
         points="219.9,126.7 208,130.3 182.2,128.1 173.5,130.1 162.7,133.4 258.4,132.4 247.8,119.9 243.3,123.7 239.7,121.9 236.3,124.6 229.2,127.3 224.7,127.9 "
         id="polygon61"
         style="fill:#ffffff" /><path
         class="st0"
         d="m 201.9,111.5 2.1,0.3 4.6,-2.7 c 0,0 -2.4,-1.5 -4.1,-0.9 0,0 0.4,-0.4 1,-0.6 0,0 -2.1,0 -4.5,1 l 0.8,-1.7 -1.2,0.8 c 0,0 2,-4.8 -2.5,-8.2 l -0.2,2.2 -1.6,-1.3 c 0,0 0.7,2.8 0.3,6.2 -0.9,-3 -2.3,-4.3 -2.3,-4.3 0.4,0.5 0.6,2.5 0.6,2.5 -1.6,-3.5 -6.5,-3.5 -6.5,-3.5 1.9,1 4.4,6.4 4.4,6.4 l -0.3,0.1 c -2,-0.5 -4.7,-0.5 -8,0.6 l 2.3,0.7 -1.3,0.4 5.2,5.5 1,-0.3 -0.3,0.7 c -0.3,0.2 -0.7,0.4 -1.1,0.7 -0.5,0.3 -1.1,0.7 -1.7,1.1 -0.6,0.4 -1.2,0.9 -1.9,1.4 -0.7,0.5 -1.4,1 -2.1,1.6 -0.7,0.6 -1.4,1.2 -2.2,1.8 -0.7,0.6 -1.4,1.3 -2.1,2 l -0.5,0.5 c -0.2,0.2 -0.3,0.4 -0.5,0.5 -0.3,0.4 -0.7,0.7 -1,1.1 -0.1,0.1 -0.2,0.2 -0.2,0.3 0,-0.2 0.1,-0.4 0.1,-0.6 0.1,-0.6 0.1,-1.2 0.2,-1.8 0,-0.6 0.1,-1.3 0.1,-1.9 0,-0.6 0,-1.3 0,-2 0,-0.7 0,-1.3 0,-2 0,-0.7 -0.1,-1.4 -0.1,-2 0,-0.3 -0.1,-0.7 -0.1,-1 l -0.1,-1 c -0.1,-1.4 -0.3,-2.7 -0.5,-4 -0.2,-1.3 -0.4,-2.6 -0.7,-3.8 -0.3,-1.2 -0.5,-2.4 -0.8,-3.6 -0.3,-1.1 -0.6,-2.2 -0.8,-3.2 -0.3,-1 -0.5,-1.9 -0.8,-2.6 -0.2,-0.6 -0.4,-1.2 -0.5,-1.6 l 0.3,-1 0.8,1.1 10.3,-1.2 -1,-1.5 3,1.3 c -2.5,-4.1 -5.5,-6.3 -8,-7.6 l -0.2,-0.3 c 0,0 7.3,-3.6 10.2,-3 0,0 -5.2,-4.4 -10,-2 0,0 2,-1.8 2.8,-2.1 0,0 -2.7,0.2 -6.2,2.6 2.6,-3.9 5.8,-6.3 5.8,-6.3 l -2.9,0 1.7,-2.5 c -7.8,-0.3 -9.8,6.6 -9.8,6.6 l -0.6,-1.8 -0.6,2.5 c -1.7,-3.1 -3.9,-5 -3.9,-5 0.4,0.8 0.5,1.6 0.5,1.6 -1.2,-2.2 -5.2,-2.6 -5.2,-2.6 l 2.6,6.9 2.4,1.5 c -11,-3 -13.8,4.8 -13.8,4.8 l 4,-2.6 -0.8,1.7 c 3.1,0 5.7,0.8 7.1,1.4 -5,0.2 -7.7,2.1 -7.7,2.1 0.8,-0.4 3.5,-0.2 3.5,-0.2 -5.2,1.3 -6.3,8 -6.3,8 1.8,-2.4 9.7,-4.3 9.7,-4.3 l 0.1,1.6 3.3,-2.8 c -1.7,1.9 -3.9,5.6 -3.3,11.6 l 1.4,-2.4 0.1,1.5 7.9,-4.3 0,-1.2 0.9,0.6 0,-1.4 c 0.1,0.3 0.2,0.7 0.3,1.1 0.2,0.8 0.4,1.7 0.6,2.6 0.2,1 0.5,2 0.7,3.1 0.2,1.1 0.4,2.3 0.6,3.5 0.2,1.2 0.4,2.5 0.5,3.7 0.1,1.3 0.3,2.6 0.3,3.9 l 0.1,1 c 0,0.3 0,0.6 0,1 0,0.6 0,1.3 0,1.9 0,0.6 0,1.3 0,1.9 0,0.6 -0.1,1.2 -0.1,1.8 -0.1,0.6 -0.1,1.2 -0.2,1.8 -0.1,0.6 -0.2,1.1 -0.2,1.7 -0.1,0.5 -0.2,1.1 -0.3,1.6 -0.1,0.5 -0.2,1 -0.3,1.4 -0.1,0.4 -0.3,0.9 -0.4,1.3 -0.1,0.2 -0.1,0.4 -0.2,0.6 -0.1,0.2 -0.1,0.4 -0.2,0.5 -0.1,0.2 -0.1,0.3 -0.2,0.5 -0.1,0.2 -0.1,0.3 -0.2,0.5 -0.1,0.3 -0.2,0.6 -0.4,0.8 0,0 0,0.1 -0.1,0.1 1.5,0 2.9,0 4.3,-0.1 0.1,-0.2 0.2,-0.4 0.3,-0.6 0.2,-0.3 0.4,-0.7 0.6,-1 0.2,-0.3 0.5,-0.7 0.7,-1.1 0.3,-0.4 0.5,-0.7 0.8,-1.1 0.3,-0.4 0.5,-0.7 0.8,-1.1 0.3,-0.4 0.6,-0.7 0.9,-1.1 0.2,-0.2 0.3,-0.4 0.5,-0.5 l 0.5,-0.5 c 0.6,-0.7 1.3,-1.4 2,-2 0.7,-0.6 1.3,-1.3 2,-1.9 0.7,-0.6 1.3,-1.1 2,-1.7 0.6,-0.5 1.2,-1 1.8,-1.4 0.6,-0.4 1.1,-0.8 1.6,-1.2 0.2,-0.2 0.5,-0.3 0.7,-0.5 l -0.7,0.8 0.8,0.1 -0.6,0.6 2.5,6.1 0.8,-0.8 -0.3,2 c 3.1,-3.1 3.6,-6.2 3.5,-8 l 0.5,3.1 0.8,-0.8 c 0,0 3.5,4.7 3.4,6.9 0,0 2.4,-4.3 0.1,-7.4 0,0 1.5,1.2 1.8,1.7 0,0 -0.6,-2.3 -3.3,-4.7 1.1,0.3 2.9,1.1 4.6,2.5 l 0.3,-1.3 1,3.3 c 0.2,-0.7 2.2,-6.3 -5.3,-9.7 z"
         id="path63"
         inkscape:connector-curvature="0"
         style="fill:#ffffff" /></g><g
       id="g65"
       style="fill:#ffffff"><path
         class="st0"
         d="m 78.2,119.8 c 2.2,5.6 25.9,0 25.9,0 0,0 27.2,-5.3 31.7,0.7 5.5,6.7 -4.4,11.3 -4.4,11.3 0,0 0.6,-2.6 -6.2,-4 -8.7,-2 -29.2,0.8 -29.2,0.8 -7.1,1 -20.9,6.4 -23.1,-5.5 -2,-11 10.7,-10.8 15.3,-8.3 -7.5,-0.8 -11.7,0.8 -10,5 z m 10.6,55.8 c -2.6,0 -5.3,-5.3 -5.3,-5.3 0,-12.4 3.7,-31.7 3.6,-38 0,0.2 0.7,-0.8 5.9,-1.6 -0.2,0.2 -3.6,43.1 -4.2,44.9 z m 12,5.8 c -2.6,0 -5.3,-5.3 -5.3,-5.3 0,-12.4 4.1,-39.4 4,-45.7 0,-0.2 0.1,-1 5.6,-1 -0.2,0.3 -3.8,50.2 -4.3,52 z m 16.5,-52 c 1,0.1 -2.9,27.8 -3.8,35.4 0,0 -3.4,19.5 4.2,23.6 8,4.3 16.9,0.5 15.6,-9.5 -0.4,-3.4 -4.3,-6.6 -4.3,-6.6 l 0.2,-1.3 c 0,0 9.6,6 7.6,15.4 -2.7,10.6 -20.3,9 -25.4,1.4 -3.8,-6.3 -3.8,-12.1 -3,-25.6 1.4,-19.4 2.9,-20.8 2.8,-33.3 0.3,0 5.9,0.2 6.1,0.5 z"
         id="path67"
         inkscape:connector-curvature="0"
         style="fill:#ffffff" /><path
         class="st0"
         d="M 132.3,201.8 C 118,205 116.7,191.6 116.7,191.6 l 0.8,-0.2 c 0.9,4.5 3.4,11 13.3,6.5 5.2,-2.3 8.5,-7.6 11.2,-18.9 0.7,-3.5 1.1,-7.4 1.2,-11.8 0,-0.4 -22.3,16.1 -14.9,-19.4 2.3,-10.9 -6.5,-1.9 -7.6,-0.5 0,0 -0.3,-0.1 -0.8,-0.8 0.8,-2.6 6.2,-8.3 12.9,-7.1 6.5,1.2 -2.8,24.4 0.1,27.7 1,1.1 7.7,0.4 10.3,-2.6 0,0 1.7,-15.7 1.7,-23.6 0,-1.1 6.9,-0.8 7.1,0.4 0.4,2.7 -3.2,26 -5.6,37.9 -2.1,10 -4.8,19.5 -14.1,22.6 z"
         id="path69"
         inkscape:connector-curvature="0"
         style="fill:#ffffff" /><path
         class="st0"
         d="m 158.6,139.7 5.5,1 0.5,3.5 c 0,0 4.5,-6.4 10.3,-5.1 2.8,1.2 4.6,4.4 5,9.3 1.1,-0.5 2.3,-1 3.2,-1.2 l -0.1,1.7 c 0,0 -1.3,0.6 -3,1.6 0,2.1 -0.3,4.5 -0.8,7.1 -2.4,11.3 -8.9,14.4 -12.5,13.7 -4.9,-0.9 -3.1,-8.9 -0.4,-13 1.5,-2.2 4.7,-4.9 8.1,-7 -0.1,-2.2 -0.5,-3.9 -0.9,-4.6 -2,-3.4 -8.6,-0.6 -10.7,7.9 -2.9,11.5 -7.3,31.3 -4.6,48.4 0.2,1.7 -6.8,-0.9 -6.8,-0.9 l 7.2,-62.4 z m 12.6,25.8 c 2.1,-3.1 3,-7.6 3.2,-11.5 -3.1,2.2 -6,5 -7,7.8 -1.5,4.5 -0.6,10 3.8,3.7 z"
         id="path71"
         inkscape:connector-curvature="0"
         style="fill:#ffffff" /><path
         class="st0"
         d="m 204,169.6 c -3.4,-4.1 -1.1,-12.6 -0.1,-15.9 0,0 -7.4,17.6 -12.4,17.2 -7.3,1 -5,-7.3 -4.2,-14.8 0.7,-6.7 2.1,-14.2 1.2,-14.9 -2.8,-0.8 -4.6,1.8 -4.6,1.8 l -0.8,-0.7 c 0.8,-0.6 3.8,-6.8 9.5,-4.1 3.2,1.4 1.3,10 0.5,16.3 -0.5,5 -1.3,10.2 0.5,10.2 4,0.8 10.7,-21.2 13.3,-25.8 0,0 2.6,2.6 5,3.4 0,0 -4.9,18.5 -5.3,22.7 -0.4,4.4 1.9,3.6 4.6,2.2 0.2,0.2 0.2,0.2 0.4,0.5 0.1,-0.1 -3.4,5.1 -7.6,1.9 z"
         id="path73"
         inkscape:connector-curvature="0"
         style="fill:#ffffff" /><path
         class="st0"
         d="m 231.3,142.4 c -3.8,-2.7 -12.5,11.1 -10.4,19.5 1.7,6.9 8.2,9.4 16,3.1 1.1,-1.2 1,2.2 1,2.2 0,0 -14,11.2 -21.1,-3 -7.1,-14.3 7.7,-30.7 16.9,-23.8 2.2,1.7 5,12.8 -5.1,8.6 0,0.1 4.7,-5.2 2.7,-6.6 z"
         id="path75"
         inkscape:connector-curvature="0"
         style="fill:#ffffff" /><path
         class="st0"
         d="m 263.8,156.7 c 0,0 8.3,-17.2 13.3,-16.9 11.7,-1 -2.1,26.5 1.2,29.8 2.8,0.8 6.1,-2.3 6.1,-2.3 l 0.1,1.3 c -1.3,0.7 -5,6.6 -10.7,3.8 -3.2,-1.4 0.3,-10.1 1.1,-16.4 0.6,-5 1.4,-8.8 -0.4,-8.8 -3.5,-0.4 -10.6,18.2 -11.4,24.1 0,0 -3.2,-0.1 -5.6,-0.9 0,0 0.4,-3.9 2.9,-15.2 0.6,-5 0.4,-9.2 -1.4,-9.3 -3.5,-0.4 -10.1,21.2 -11.4,25.4 0,0 -3.7,-0.5 -6.1,-1.3 0,0 4,-20.2 4.5,-24.4 0.5,-4.4 -4.5,-3.2 -7.2,-1.8 -0.2,-0.2 -0.2,-0.6 -0.4,-0.9 0,0 6.1,-5.2 10.4,-1.9 3.3,4.2 0.4,12.7 -0.6,16 0,0 6.5,-17.8 12.6,-17.5 5.1,0.7 4.3,13.2 3,17.2 z m -10.9,-25.1 c 0.4,-0.5 0.6,-1.6 0.4,-2.7 -0.5,0.4 14.8,-0.8 21.8,-3.3 2.2,-0.8 -0.1,6.5 -0.1,6.5 -1.2,-0.1 -12.1,2.7 -22.1,-0.5 z"
         id="path77"
         inkscape:connector-curvature="0"
         style="fill:#ffffff" /><path
         class="st0"
         d="m 306.6,169.6 c -3.4,-4.1 -1.1,-12.6 -0.1,-15.9 0,0 -7.4,17.6 -12.4,17.2 -7.3,1 -5,-7.3 -4.2,-14.8 0.7,-6.7 2.1,-14.2 1.2,-14.9 -2.8,-0.8 -4.6,1.8 -4.6,1.8 l -0.8,-0.7 c 0.8,-0.6 3.8,-6.8 9.5,-4.1 3.2,1.4 1.3,10 0.5,16.3 -0.5,5 -1.3,10.2 0.5,10.2 4,0.8 10.7,-21.2 13.3,-25.8 0,0 2.6,2.6 5,3.4 0,0 -4.9,18.5 -5.3,22.7 -0.4,4.4 1.9,3.6 4.6,2.2 0.2,0.2 0.2,0.2 0.4,0.5 0.1,-0.1 -3.3,5.1 -7.6,1.9 z"
         id="path79"
         inkscape:connector-curvature="0"
         style="fill:#ffffff" /><path
         class="st0"
         d="m 325.7,142.3 c 3.2,1.6 2,6.8 1.4,14.2 3.1,-7.3 7.6,-20.5 16.5,-20.6 12.2,-0.1 5,11.5 0.8,6 0,-0.1 -0.3,-8.3 -6.8,0.8 -2.5,3.4 -5.8,8.7 -6.8,12.8 1.3,-0.3 3,-0.7 5.2,-0.9 8.3,0.2 1.6,13.7 8.8,16.6 2.9,0.5 4.9,-1.6 4.9,-1.6 l 0.4,0.7 c 0,0 -4.1,7.4 -10.7,5.2 -4.1,-1.9 -2.7,-18.3 -6.8,-17.2 -8.2,1.7 -6.7,9 -8.4,14.2 0,0 -2.5,-1 -5.3,-1.5 0,0 3.1,-19.4 3.1,-23.5 0,-4.4 -2.2,-3.4 -4.7,-1.7 -0.2,-0.2 -0.2,-0.2 -0.4,-0.4 -0.3,0 4.3,-6 8.8,-3.1 z"
         id="path81"
         inkscape:connector-curvature="0"
         style="fill:#ffffff" /></g></g></svg>